<mxfile host="app.diagrams.net" agent="Mozilla/5.0 (Macintosh; Intel Mac OS X 10_15_7) AppleWebKit/537.36 (KHTML, like Gecko) Chrome/133.0.0.0 Safari/537.36" version="26.0.16">
  <diagram name="Page-1" id="nE4MtQarkzhEA3j3NvcN">
    <mxGraphModel dx="1094" dy="2240" grid="1" gridSize="10" guides="1" tooltips="1" connect="1" arrows="1" fold="1" page="1" pageScale="1" pageWidth="827" pageHeight="1169" background="none" math="0" shadow="0">
      <root>
        <mxCell id="0" />
        <mxCell id="1" parent="0" />
        <mxCell id="SuyekStuacBiTYmC6GAH-48" value="" style="group" vertex="1" connectable="0" parent="1">
          <mxGeometry x="70" y="-120" width="726.75" height="678" as="geometry" />
        </mxCell>
        <mxCell id="SuyekStuacBiTYmC6GAH-9" value="" style="group" vertex="1" connectable="0" parent="SuyekStuacBiTYmC6GAH-48">
          <mxGeometry x="26.75" y="500" width="76.5" height="135" as="geometry" />
        </mxCell>
        <mxCell id="SuyekStuacBiTYmC6GAH-37" style="edgeStyle=orthogonalEdgeStyle;rounded=0;orthogonalLoop=1;jettySize=auto;html=1;" edge="1" parent="SuyekStuacBiTYmC6GAH-9" source="SuyekStuacBiTYmC6GAH-7">
          <mxGeometry relative="1" as="geometry">
            <mxPoint x="180" y="88.5" as="targetPoint" />
          </mxGeometry>
        </mxCell>
        <mxCell id="SuyekStuacBiTYmC6GAH-45" value="lambda is triggered" style="edgeLabel;html=1;align=center;verticalAlign=middle;resizable=0;points=[];" vertex="1" connectable="0" parent="SuyekStuacBiTYmC6GAH-37">
          <mxGeometry x="-0.2404" y="-2" relative="1" as="geometry">
            <mxPoint x="24" y="20" as="offset" />
          </mxGeometry>
        </mxCell>
        <mxCell id="SuyekStuacBiTYmC6GAH-7" value="" style="outlineConnect=0;dashed=0;verticalLabelPosition=bottom;verticalAlign=top;align=center;html=1;shape=mxgraph.aws3.s3;fillColor=#E05243;gradientColor=none;" vertex="1" parent="SuyekStuacBiTYmC6GAH-9">
          <mxGeometry y="42" width="76.5" height="93" as="geometry" />
        </mxCell>
        <mxCell id="SuyekStuacBiTYmC6GAH-8" value="&amp;nbsp;&lt;div&gt;S3&lt;div&gt;&lt;br&gt;&lt;/div&gt;&lt;/div&gt;" style="text;html=1;align=center;verticalAlign=middle;resizable=0;points=[];autosize=1;strokeColor=none;fillColor=none;" vertex="1" parent="SuyekStuacBiTYmC6GAH-9">
          <mxGeometry x="18.25" width="40" height="60" as="geometry" />
        </mxCell>
        <mxCell id="SuyekStuacBiTYmC6GAH-16" value="" style="group" vertex="1" connectable="0" parent="SuyekStuacBiTYmC6GAH-48">
          <mxGeometry y="60" width="150" height="90" as="geometry" />
        </mxCell>
        <mxCell id="SuyekStuacBiTYmC6GAH-18" style="edgeStyle=orthogonalEdgeStyle;rounded=0;orthogonalLoop=1;jettySize=auto;html=1;" edge="1" parent="SuyekStuacBiTYmC6GAH-16" source="SuyekStuacBiTYmC6GAH-12">
          <mxGeometry relative="1" as="geometry">
            <mxPoint x="61.75" y="260" as="targetPoint" />
          </mxGeometry>
        </mxCell>
        <mxCell id="SuyekStuacBiTYmC6GAH-33" value="" style="group" vertex="1" connectable="0" parent="SuyekStuacBiTYmC6GAH-16">
          <mxGeometry x="46.75" y="5" width="38.25" height="85" as="geometry" />
        </mxCell>
        <mxCell id="SuyekStuacBiTYmC6GAH-12" value="Actor" style="shape=umlActor;verticalLabelPosition=bottom;verticalAlign=top;html=1;outlineConnect=0;container=1;" vertex="1" parent="SuyekStuacBiTYmC6GAH-33">
          <mxGeometry y="25" width="30" height="60" as="geometry" />
        </mxCell>
        <mxCell id="SuyekStuacBiTYmC6GAH-13" value="&lt;div&gt;&lt;br&gt;&lt;/div&gt;" style="text;html=1;align=center;verticalAlign=middle;resizable=0;points=[];autosize=1;strokeColor=none;fillColor=none;" vertex="1" parent="SuyekStuacBiTYmC6GAH-33">
          <mxGeometry x="18.25" width="20" height="30" as="geometry" />
        </mxCell>
        <mxCell id="SuyekStuacBiTYmC6GAH-20" style="edgeStyle=orthogonalEdgeStyle;rounded=0;orthogonalLoop=1;jettySize=auto;html=1;" edge="1" parent="SuyekStuacBiTYmC6GAH-48" source="SuyekStuacBiTYmC6GAH-17" target="SuyekStuacBiTYmC6GAH-8">
          <mxGeometry relative="1" as="geometry" />
        </mxCell>
        <mxCell id="SuyekStuacBiTYmC6GAH-19" value="&lt;font style=&quot;font-size: 16px;&quot;&gt;https://projectparadox.in&lt;/font&gt;&lt;div&gt;&lt;br&gt;&lt;/div&gt;" style="text;html=1;align=center;verticalAlign=middle;resizable=0;points=[];autosize=1;strokeColor=none;fillColor=none;" vertex="1" parent="SuyekStuacBiTYmC6GAH-48">
          <mxGeometry x="-18.25" y="228" width="190" height="50" as="geometry" />
        </mxCell>
        <mxCell id="SuyekStuacBiTYmC6GAH-22" value="" style="group" vertex="1" connectable="0" parent="SuyekStuacBiTYmC6GAH-48">
          <mxGeometry x="26.75" y="312" width="80" height="118" as="geometry" />
        </mxCell>
        <mxCell id="SuyekStuacBiTYmC6GAH-17" value="" style="outlineConnect=0;dashed=0;verticalLabelPosition=bottom;verticalAlign=top;align=center;html=1;shape=mxgraph.aws3.cloudfront;fillColor=#F58536;gradientColor=none;" vertex="1" parent="SuyekStuacBiTYmC6GAH-22">
          <mxGeometry y="28" width="76.5" height="90" as="geometry" />
        </mxCell>
        <mxCell id="SuyekStuacBiTYmC6GAH-21" value="cloud front&lt;div&gt;&lt;br&gt;&lt;/div&gt;" style="text;html=1;align=center;verticalAlign=middle;resizable=0;points=[];autosize=1;strokeColor=none;fillColor=none;" vertex="1" parent="SuyekStuacBiTYmC6GAH-22">
          <mxGeometry width="80" height="40" as="geometry" />
        </mxCell>
        <mxCell id="SuyekStuacBiTYmC6GAH-31" style="edgeStyle=orthogonalEdgeStyle;rounded=0;orthogonalLoop=1;jettySize=auto;html=1;" edge="1" parent="SuyekStuacBiTYmC6GAH-48" source="SuyekStuacBiTYmC6GAH-13" target="SuyekStuacBiTYmC6GAH-23">
          <mxGeometry relative="1" as="geometry" />
        </mxCell>
        <mxCell id="SuyekStuacBiTYmC6GAH-32" value="&lt;font style=&quot;font-size: 15px;&quot;&gt;https://api.projectparadox.in&lt;/font&gt;&lt;div&gt;&lt;br&gt;&lt;/div&gt;" style="edgeLabel;html=1;align=center;verticalAlign=middle;resizable=0;points=[];" vertex="1" connectable="0" parent="SuyekStuacBiTYmC6GAH-31">
          <mxGeometry x="-0.8517" y="2" relative="1" as="geometry">
            <mxPoint x="-33" y="-8" as="offset" />
          </mxGeometry>
        </mxCell>
        <mxCell id="SuyekStuacBiTYmC6GAH-35" value="" style="group" vertex="1" connectable="0" parent="SuyekStuacBiTYmC6GAH-48">
          <mxGeometry x="476.75" width="250" height="292" as="geometry" />
        </mxCell>
        <mxCell id="SuyekStuacBiTYmC6GAH-30" value="" style="group" vertex="1" connectable="0" parent="SuyekStuacBiTYmC6GAH-35">
          <mxGeometry y="42" width="250" height="250" as="geometry" />
        </mxCell>
        <mxCell id="SuyekStuacBiTYmC6GAH-24" style="edgeStyle=orthogonalEdgeStyle;rounded=0;orthogonalLoop=1;jettySize=auto;html=1;" edge="1" parent="SuyekStuacBiTYmC6GAH-30" source="SuyekStuacBiTYmC6GAH-23">
          <mxGeometry relative="1" as="geometry">
            <mxPoint x="160" y="40" as="targetPoint" />
          </mxGeometry>
        </mxCell>
        <mxCell id="SuyekStuacBiTYmC6GAH-23" value="NgInx&lt;div&gt;443&lt;/div&gt;" style="whiteSpace=wrap;html=1;aspect=fixed;" vertex="1" parent="SuyekStuacBiTYmC6GAH-30">
          <mxGeometry width="80" height="80" as="geometry" />
        </mxCell>
        <mxCell id="SuyekStuacBiTYmC6GAH-26" value="Node Server&lt;div&gt;PORT : 8080&lt;/div&gt;" style="whiteSpace=wrap;html=1;aspect=fixed;" vertex="1" parent="SuyekStuacBiTYmC6GAH-30">
          <mxGeometry x="160" width="80" height="80" as="geometry" />
        </mxCell>
        <mxCell id="SuyekStuacBiTYmC6GAH-29" value="" style="group" vertex="1" connectable="0" parent="SuyekStuacBiTYmC6GAH-30">
          <mxGeometry x="160" y="120" width="90" height="130" as="geometry" />
        </mxCell>
        <mxCell id="SuyekStuacBiTYmC6GAH-27" value="" style="image;aspect=fixed;perimeter=ellipsePerimeter;html=1;align=center;shadow=0;dashed=0;spacingTop=3;image=img/lib/active_directory/sql_server.svg;" vertex="1" parent="SuyekStuacBiTYmC6GAH-29">
          <mxGeometry x="20.700000000000045" width="69.3" height="90" as="geometry" />
        </mxCell>
        <mxCell id="SuyekStuacBiTYmC6GAH-28" value="SQL server&amp;nbsp;&lt;div&gt;PORT: 3306&lt;/div&gt;" style="text;html=1;align=center;verticalAlign=middle;resizable=0;points=[];autosize=1;strokeColor=none;fillColor=none;" vertex="1" parent="SuyekStuacBiTYmC6GAH-29">
          <mxGeometry y="90" width="90" height="40" as="geometry" />
        </mxCell>
        <mxCell id="SuyekStuacBiTYmC6GAH-34" value="EC2" style="text;html=1;align=center;verticalAlign=middle;resizable=0;points=[];autosize=1;strokeColor=none;fillColor=none;" vertex="1" parent="SuyekStuacBiTYmC6GAH-35">
          <mxGeometry x="85" width="50" height="30" as="geometry" />
        </mxCell>
        <mxCell id="SuyekStuacBiTYmC6GAH-44" style="edgeStyle=orthogonalEdgeStyle;rounded=0;orthogonalLoop=1;jettySize=auto;html=1;" edge="1" parent="SuyekStuacBiTYmC6GAH-48" source="SuyekStuacBiTYmC6GAH-36">
          <mxGeometry relative="1" as="geometry">
            <mxPoint x="251.75" y="390" as="targetPoint" />
          </mxGeometry>
        </mxCell>
        <mxCell id="SuyekStuacBiTYmC6GAH-36" value="" style="outlineConnect=0;dashed=0;verticalLabelPosition=bottom;verticalAlign=top;align=center;html=1;shape=mxgraph.aws3.lambda_function;fillColor=#F58534;gradientColor=none;" vertex="1" parent="SuyekStuacBiTYmC6GAH-48">
          <mxGeometry x="216.75" y="550" width="70" height="70" as="geometry" />
        </mxCell>
        <mxCell id="SuyekStuacBiTYmC6GAH-40" value="" style="endArrow=classic;html=1;rounded=0;" edge="1" parent="SuyekStuacBiTYmC6GAH-48">
          <mxGeometry relative="1" as="geometry">
            <mxPoint x="256.75" y="390" as="sourcePoint" />
            <mxPoint x="106.75" y="390" as="targetPoint" />
          </mxGeometry>
        </mxCell>
        <mxCell id="SuyekStuacBiTYmC6GAH-41" value="&lt;font style=&quot;font-size: 13px;&quot;&gt;Invalidates cache&lt;/font&gt;" style="edgeLabel;resizable=0;html=1;;align=center;verticalAlign=middle;container=1;" connectable="0" vertex="1" parent="SuyekStuacBiTYmC6GAH-40">
          <mxGeometry relative="1" as="geometry" />
        </mxCell>
        <mxCell id="SuyekStuacBiTYmC6GAH-46" value="serves FE static artifacts" style="text;html=1;align=center;verticalAlign=middle;resizable=0;points=[];autosize=1;strokeColor=none;fillColor=none;" vertex="1" parent="SuyekStuacBiTYmC6GAH-48">
          <mxGeometry y="648" width="150" height="30" as="geometry" />
        </mxCell>
        <mxCell id="SuyekStuacBiTYmC6GAH-47" value="so that new artifacts&lt;div&gt;&amp;nbsp;of S3&amp;nbsp;&lt;span style=&quot;background-color: transparent; color: light-dark(rgb(0, 0, 0), rgb(255, 255, 255));&quot;&gt;can be served&lt;/span&gt;&lt;/div&gt;" style="text;html=1;align=center;verticalAlign=middle;resizable=0;points=[];autosize=1;strokeColor=none;fillColor=none;" vertex="1" parent="SuyekStuacBiTYmC6GAH-48">
          <mxGeometry x="116.75" y="400" width="130" height="40" as="geometry" />
        </mxCell>
        <mxCell id="SuyekStuacBiTYmC6GAH-49" value="&lt;font style=&quot;font-size: 18px;&quot;&gt;Iteration 1&amp;nbsp;&lt;/font&gt;" style="text;html=1;align=center;verticalAlign=middle;resizable=0;points=[];autosize=1;strokeColor=none;fillColor=none;" vertex="1" parent="SuyekStuacBiTYmC6GAH-48">
          <mxGeometry x="285" y="5" width="110" height="40" as="geometry" />
        </mxCell>
      </root>
    </mxGraphModel>
  </diagram>
</mxfile>
